HIERARCHY
ROOT hip
{
	OFFSET 0.000000 0.000000 0.000000 
	CHANNELS 6 Xposition Yposition Zposition Xrotation Zrotation Yrotation
	JOINT abdomen
	{
		OFFSET 0.000000 3.402643 0.000000 
		CHANNELS 3 Xrotation Zrotation Yrotation
		JOINT chest
		{
			OFFSET 0.000000 8.438565 -0.680529 
			CHANNELS 3 Xrotation Zrotation Yrotation
			JOINT neck
			{
				OFFSET 0.000000 10.207942 -0.272212 
				CHANNELS 3 Xrotation Zrotation Yrotation
				JOINT head
				{
					OFFSET 0.000000 3.130431 0.000000 
					CHANNELS 3 Xrotation Zrotation Yrotation
					End Site
					{
						OFFSET 0.000000 3.130435 0.000000 
					}
				}
			}
			JOINT lCollar
			{
				OFFSET 3.470700 6.669187 -0.816635 
				CHANNELS 3 Yrotation Zrotation Xrotation
				JOINT lShldr
				{
					OFFSET 3.198488 0.000000 0.000000 
					CHANNELS 3 Zrotation Yrotation Xrotation
					JOINT lForeArm
					{
						OFFSET 10.139888 0.000000 0.000000 
						CHANNELS 3 Yrotation Zrotation Xrotation
						JOINT lHand
						{
							OFFSET 8.370511 0.000000 0.000000 
							CHANNELS 3 Zrotation Yrotation Xrotation
							End Site
							{
								OFFSET 4.083176 0.000000 0.000000 
							}
						}
					}
				}
			}
			JOINT rCollar
			{
				OFFSET -3.470700 6.669187 -0.816635 
				CHANNELS 3 Yrotation Zrotation Xrotation
				JOINT rShldr
				{
					OFFSET -3.198488 0.000000 0.000000 
					CHANNELS 3 Zrotation Yrotation Xrotation
					JOINT rForeArm
					{
						OFFSET -10.139888 0.000000 0.000000 
						CHANNELS 3 Yrotation Zrotation Xrotation
						JOINT rHand
						{
							OFFSET -8.370511 0.000000 0.000000 
							CHANNELS 3 Zrotation Yrotation Xrotation
							End Site
							{
								OFFSET -4.083176 0.000000 0.000000 
							}
						}
					}
				}
			}
		}
	}
	JOINT lThigh
	{
		OFFSET 5.308129 -1.633274 1.361059 
		CHANNELS 3 Xrotation Zrotation Yrotation
		JOINT lShin
		{
			OFFSET -2.041588 -20.007561 0.000000 
			CHANNELS 3 Xrotation Zrotation Yrotation
			JOINT lFoot
			{
				OFFSET 0.000000 -19.190928 -1.224953 
				CHANNELS 3 Xrotation Yrotation Zrotation
				End Site
				{
					OFFSET 0.000000 -2.449906 4.627600 
				}
			}
		}
	}
	JOINT rThigh
	{
		OFFSET -5.308129 -1.633274 1.361059 
		CHANNELS 3 Xrotation Zrotation Yrotation
		JOINT rShin
		{
			OFFSET 2.041588 -20.007561 0.000000 
			CHANNELS 3 Xrotation Zrotation Yrotation
			JOINT rFoot
			{
				OFFSET 0.000000 -19.190928 -1.224953 
				CHANNELS 3 Xrotation Yrotation Zrotation
				End Site
				{
					OFFSET 0.000000 -2.449906 4.627600 
				}
			}
		}
	}
}
MOTION
Frames: 6
Frame Time: 0.033333
-0.887526 48.837002 0.087133 -3.391799 -0.185098 3.984385 0.000000 0.000000 0.000000 2.650932 -6.596473 4.963978 23.303139 2.304686 0.058939 -7.682909 0.648296 -12.510498 2.534705 8.892804 24.184626 -87.358597 -0.694009 -12.516257 -37.131691 -1.297712 15.457560 -0.491582 15.181202 51.583179 -10.610403 -16.738565 21.218651 79.372581 21.215139 73.525848 27.593573 -24.119625 20.222534 30.047777 2.030493 -7.829665 15.097819 7.849802 19.495367 57.948849 3.016541 -1.819606 2.052847 -3.309605 -23.400887 -4.393647 5.125646 2.823493 29.175514 5.105275 2.707318 -17.740622 -21.749565 14.635367 
-1.357566 48.650509 0.044567 -3.937653 -2.208844 4.857052 0.000000 0.000000 0.000000 3.728025 -4.881544 5.292481 22.150677 2.187499 0.058924 -7.749005 1.102865 -13.205521 3.480473 10.297196 23.912184 -87.194962 -1.684579 -12.519747 -37.433933 -2.037357 16.034197 -0.440938 13.358347 51.503502 -10.019194 -18.279200 21.087080 80.563126 21.599394 74.101166 27.457752 -24.670322 17.577263 29.114750 1.189419 -8.119637 8.006304 11.806046 21.361162 68.134895 8.521806 -0.947604 7.029490 -5.142038 -21.524208 -2.263702 7.746014 3.502229 29.365953 5.452708 2.837574 -19.948486 -23.084148 13.446548 
-1.760333 48.463821 -0.074848 -4.901323 -3.509836 5.390466 0.000000 0.000000 0.000000 5.327505 -3.586857 5.518373 21.483994 1.123047 -0.019527 -8.050466 2.177098 -13.222472 5.600402 10.917524 23.393110 -86.237602 -3.719988 -12.899477 -37.540371 -2.619822 21.734283 -0.738657 13.497558 51.127342 -8.070299 -19.700592 21.524973 81.344765 22.544088 74.319611 27.018017 -25.099430 14.229053 27.895470 0.767474 -8.327285 1.267432 14.165154 22.283260 75.058815 13.402630 -0.041280 8.937840 -5.020493 -20.219692 0.263218 9.679572 3.986765 29.518066 5.726988 2.907823 -21.943878 -23.735575 12.429559 
-2.093472 48.340748 -0.239649 -6.157134 -4.132466 5.335835 0.000000 0.000000 0.000000 7.186963 -2.779509 5.631621 21.388117 -0.585936 -0.136811 -8.402108 3.489258 -12.533152 8.425468 10.654902 22.796701 -84.743507 -6.223918 -13.537214 -37.266308 -3.217788 27.305239 -1.552378 15.177459 50.594788 -5.070182 -20.952120 22.464664 82.125938 24.376757 74.331711 25.791553 -25.182491 11.618523 26.872414 0.705959 -8.383037 -4.375407 15.328083 22.526312 78.015923 16.333302 0.556039 9.000765 -3.668621 -19.036806 3.280985 10.985523 4.325180 29.655626 5.678465 2.918385 -23.638359 -23.619970 12.100900 
-2.337330 48.275719 -0.456494 -7.078245 -4.183830 4.914896 0.000000 0.000000 0.000000 8.655298 -2.546265 5.630274 21.612265 -2.324194 -0.264247 -8.575522 4.526936 -11.491312 11.119690 10.030508 22.316675 -83.438148 -8.556075 -14.073703 -36.697102 -3.678274 30.079020 -2.044978 16.857000 50.257042 -1.924182 -22.202381 23.582882 83.198418 26.804665 74.354660 23.991451 -25.064726 10.774936 26.681942 0.850121 -8.267482 -9.051888 15.491776 22.252008 76.759186 17.012009 0.737190 8.438053 -1.049727 -18.831730 5.859417 11.513573 4.423365 29.889219 5.471620 2.898791 -25.009409 -22.976236 12.305347 
-2.509397 48.239914 -0.726667 -7.221074 -3.846711 4.276945 0.000000 0.000000 0.000000 9.239178 -2.809086 5.543357 21.820498 -3.740160 -0.362470 -8.442346 5.053365 -10.362560 12.986868 9.504130 22.041328 -82.679771 -9.866625 -14.375079 -36.503357 -4.094916 29.291805 -1.927952 17.689173 50.299145 0.392514 -23.474720 24.488251 84.665146 29.389891 74.536537 22.340437 -25.011993 11.885628 27.706816 1.139470 -7.969047 -12.782190 15.114042 21.756062 71.373650 15.422620 0.480866 7.219033 2.372144 -19.779196 7.431406 11.522684 4.384904 30.308617 5.141034 2.863841 -26.179045 -22.218996 12.674511 
